<svg width="35" height="35" viewBox="0 0 35 35" fill="none" xmlns="http://www.w3.org/2000/svg">
<path d="M32.8809 35C22.627 35 12.373 35 2.11914 35C1.45605 34.8086 0.84082 34.5283 0.464844 33.9199C0.273438 33.5986 0.150391 33.2295 0 32.8809C0 22.627 0 12.373 0 2.11914C0.164062 1.57227 0.348633 1.01855 0.820312 0.683594C1.2168 0.40332 1.68164 0.225586 2.11914 0C12.373 0 22.627 0 32.8809 0C33.5439 0.18457 34.1592 0.47168 34.5352 1.08008C34.7334 1.40137 34.8496 1.77051 35 2.11914C35 12.373 35 22.627 35 32.8809C34.8086 33.5439 34.5283 34.1592 33.9199 34.5352C33.5986 34.7266 33.2295 34.8496 32.8809 35ZM17.5273 7.39648C17.5273 7.4375 17.5273 7.47852 17.5273 7.51953C16.0781 7.51953 14.6357 7.49219 13.1865 7.52637C12.0244 7.55371 10.9033 7.82715 9.91895 8.49023C8.27832 9.59766 7.57422 11.2314 7.5332 13.1318C7.47168 16.0439 7.49902 18.9629 7.52637 21.875C7.54004 23.0166 7.83398 24.1104 8.4834 25.0742C9.59082 26.7148 11.2246 27.4189 13.125 27.46C16.0371 27.5215 18.9561 27.5146 21.8682 27.46C23.4814 27.4326 24.9307 26.8994 26.0449 25.6553C27.0293 24.5547 27.4326 23.2285 27.46 21.793C27.5146 19.4004 27.5215 17.0078 27.5215 14.6152C27.5215 13.9111 27.4668 13.2002 27.3984 12.5029C27.125 9.78906 25.1836 7.82031 22.4629 7.59473C20.8359 7.46484 19.1816 7.45801 17.5273 7.39648Z" fill="url(#paint0_linear_119_21947)"/>
<defs>
<linearGradient id="paint0_linear_119_21947" x1="17.5" y1="0" x2="17.5" y2="35" gradientUnits="userSpaceOnUse">
<stop stop-color="#00D8A4"/>
<stop offset="1" stop-color="#009470"/>
</linearGradient>
</defs>
</svg>
